####
#
# OBJ File Generated by Meshlab
#
####
# Object 7dof_elbow.obj
#
# Vertices: 134
# Faces: 120
#
####
vn 0.000000 3.107268 0.326584
v 0.033000 0.058180 0.006115
vn 0.000000 3.107268 -0.326584
v 0.033000 0.058180 -0.006115
vn 0.000000 2.971466 0.965483
v 0.033000 0.055637 0.018078
vn 0.000000 2.971466 -0.965483
v 0.033000 0.055637 -0.018078
vn 0.000000 2.705794 1.562191
v 0.033000 0.050662 0.029250
vn 0.000000 2.705795 -1.562191
v 0.033000 0.050662 -0.029250
vn 0.000000 1.270800 0.923292
v 0.033000 0.043474 0.039144
vn 0.000000 1.270800 -0.923292
v 0.033000 0.043474 -0.039144
vn 0.000000 1.836466 2.527679
v 0.033000 0.034385 0.047327
vn 0.000000 1.836466 -2.527679
v 0.033000 0.034385 -0.047327
vn 0.000000 1.270797 2.854267
v 0.033000 0.023794 0.053442
vn 0.000000 1.270797 -2.854267
v 0.033000 0.023794 -0.053442
vn 0.000000 0.649596 3.056109
v 0.033000 0.012163 0.057222
vn 0.000000 0.649596 -3.056108
v 0.033000 0.012163 -0.057222
vn 0.000000 0.000000 -3.124382
v 0.033000 0.000000 -0.058500
vn 0.000000 -0.000000 3.124382
v 0.033000 0.000000 0.058500
vn 0.000000 -0.649596 3.056108
v 0.033000 -0.012163 0.057222
vn 0.000000 -0.649596 -3.056109
v 0.033000 -0.012163 -0.057222
vn 0.000000 -1.270797 2.854267
v 0.033000 -0.023794 0.053442
vn 0.000000 -1.270797 -2.854267
v 0.033000 -0.023794 -0.053442
vn 0.000000 -1.836466 2.527679
v 0.033000 -0.034385 0.047327
vn 0.000000 -1.836466 -2.527679
v 0.033000 -0.034385 -0.047327
vn 0.000000 -1.270800 0.923292
v 0.033000 -0.043474 0.039144
vn 0.000000 -1.270800 -0.923292
v 0.033000 -0.043474 -0.039144
vn 0.000000 -2.705795 1.562191
v 0.033000 -0.050662 0.029250
vn 0.000000 -2.705794 -1.562191
v 0.033000 -0.050662 -0.029250
vn 0.000000 -2.971466 0.965483
v 0.033000 -0.055637 0.018078
vn 0.000000 -2.971466 -0.965483
v 0.033000 -0.055637 -0.018078
vn 0.000000 -3.107268 0.326584
v 0.033000 -0.058180 0.006115
vn 0.000000 -3.107268 -0.326584
v 0.033000 -0.058180 -0.006115
vn 0.000000 3.107268 0.326584
v -0.033000 0.058180 0.006115
vn 0.000000 3.107268 -0.326584
v -0.033000 0.058180 -0.006115
vn 0.000000 2.971466 0.965483
v -0.033000 0.055637 0.018078
vn 0.000000 2.971466 -0.965483
v -0.033000 0.055637 -0.018078
vn 0.000000 2.705795 1.562191
v -0.033000 0.050662 0.029250
vn 0.000000 2.705794 -1.562191
v -0.033000 0.050662 -0.029250
vn 0.000000 1.270800 0.923292
v -0.033000 0.043474 0.039144
vn 0.000000 1.270800 -0.923292
v -0.033000 0.043474 -0.039144
vn 0.000000 1.836466 2.527679
v -0.033000 0.034385 0.047327
vn 0.000000 1.836466 -2.527679
v -0.033000 0.034385 -0.047327
vn 0.000000 1.270797 2.854267
v -0.033000 0.023794 0.053442
vn 0.000000 1.270797 -2.854267
v -0.033000 0.023794 -0.053442
vn 0.000000 0.649596 3.056108
v -0.033000 0.012163 0.057222
vn 0.000000 0.649596 -3.056109
v -0.033000 0.012163 -0.057222
vn 0.000000 -0.000000 -3.124382
v -0.033000 0.000000 -0.058500
vn 0.000000 0.000000 3.124382
v -0.033000 0.000000 0.058500
vn 0.000000 -0.649596 3.056109
v -0.033000 -0.012163 0.057222
vn 0.000000 -0.649596 -3.056108
v -0.033000 -0.012163 -0.057222
vn 0.000000 -1.270797 2.854267
v -0.033000 -0.023794 0.053442
vn 0.000000 -1.270797 -2.854267
v -0.033000 -0.023794 -0.053442
vn 0.000000 -1.836466 2.527679
v -0.033000 -0.034385 0.047327
vn 0.000000 -1.836466 -2.527679
v -0.033000 -0.034385 -0.047327
vn 0.000000 -1.270800 0.923292
v -0.033000 -0.043474 0.039144
vn 0.000000 -1.270800 -0.923292
v -0.033000 -0.043474 -0.039144
vn 0.000000 -2.705794 1.562191
v -0.033000 -0.050662 0.029250
vn 0.000000 -2.705795 -1.562191
v -0.033000 -0.050662 -0.029250
vn 0.000000 -2.971466 0.965483
v -0.033000 -0.055637 0.018078
vn 0.000000 -2.971466 -0.965483
v -0.033000 -0.055637 -0.018078
vn 0.000000 -3.107268 0.326584
v -0.033000 -0.058180 0.006115
vn 0.000000 -3.107268 -0.326584
v -0.033000 -0.058180 -0.006115
vn 2.932155 0.000000 0.000000
v 0.033000 0.058180 0.006115
vn 2.932155 0.000000 0.000000
v 0.033000 0.058180 -0.006115
vn 2.932152 0.000000 0.000000
v 0.033000 0.055637 0.018078
vn 2.932152 0.000000 0.000000
v 0.033000 0.055637 -0.018078
vn 2.932151 0.000000 0.000000
v 0.033000 0.050662 0.029250
vn 2.932151 0.000000 0.000000
v 0.033000 0.050662 -0.029250
vn 2.932154 0.000000 0.000000
v 0.033000 0.043474 0.039144
vn 2.932154 0.000000 0.000000
v 0.033000 0.043474 -0.039144
vn 2.932154 0.000000 0.000000
v 0.033000 0.034385 0.047327
vn 2.932154 0.000000 0.000000
v 0.033000 0.034385 -0.047327
vn 2.932149 0.000000 0.000000
v 0.033000 0.023794 0.053442
vn 2.932149 0.000000 0.000000
v 0.033000 0.023794 -0.053442
vn 2.932159 0.000000 0.000000
v 0.033000 0.012163 0.057222
vn 2.932159 0.000000 0.000000
v 0.033000 0.012163 -0.057222
vn 2.932147 0.000000 0.000000
v 0.033000 0.000000 -0.058500
vn 2.932147 0.000000 0.000000
v 0.033000 0.000000 0.058500
vn 6.283186 0.000000 0.000000
v 0.033000 0.000000 0.000000
vn 2.932159 0.000000 0.000000
v 0.033000 -0.012163 0.057222
vn 2.932159 0.000000 0.000000
v 0.033000 -0.012163 -0.057222
vn 2.932149 0.000000 0.000000
v 0.033000 -0.023794 0.053442
vn 2.932149 0.000000 0.000000
v 0.033000 -0.023794 -0.053442
vn 2.932154 0.000000 0.000000
v 0.033000 -0.034385 0.047327
vn 2.932154 0.000000 0.000000
v 0.033000 -0.034385 -0.047327
vn 2.932154 0.000000 0.000000
v 0.033000 -0.043474 0.039144
vn 2.932154 0.000000 0.000000
v 0.033000 -0.043474 -0.039144
vn 2.932151 0.000000 0.000000
v 0.033000 -0.050662 0.029250
vn 2.932151 0.000000 0.000000
v 0.033000 -0.050662 -0.029250
vn 2.932152 0.000000 0.000000
v 0.033000 -0.055637 0.018078
vn 2.932152 0.000000 0.000000
v 0.033000 -0.055637 -0.018078
vn 2.932155 0.000000 0.000000
v 0.033000 -0.058180 0.006115
vn 2.932155 0.000000 0.000000
v 0.033000 -0.058180 -0.006115
vn -2.932155 0.000000 0.000000
v -0.033000 0.058180 0.006115
vn -2.932155 0.000000 0.000000
v -0.033000 0.058180 -0.006115
vn -2.932152 0.000000 0.000000
v -0.033000 0.055637 0.018078
vn -2.932152 0.000000 0.000000
v -0.033000 0.055637 -0.018078
vn -2.932151 0.000000 0.000000
v -0.033000 0.050662 0.029250
vn -2.932151 0.000000 0.000000
v -0.033000 0.050662 -0.029250
vn -2.932154 0.000000 0.000000
v -0.033000 0.043474 0.039144
vn -2.932154 0.000000 0.000000
v -0.033000 0.043474 -0.039144
vn -2.932154 0.000000 0.000000
v -0.033000 0.034385 0.047327
vn -2.932154 0.000000 0.000000
v -0.033000 0.034385 -0.047327
vn -2.932149 0.000000 0.000000
v -0.033000 0.023794 0.053442
vn -2.932149 0.000000 0.000000
v -0.033000 0.023794 -0.053442
vn -2.932159 0.000000 0.000000
v -0.033000 0.012163 0.057222
vn -2.932159 0.000000 0.000000
v -0.033000 0.012163 -0.057222
vn -2.932147 0.000000 0.000000
v -0.033000 0.000000 -0.058500
vn -2.932147 0.000000 0.000000
v -0.033000 0.000000 0.058500
vn -6.283186 0.000000 0.000000
v -0.033000 0.000000 0.000000
vn -2.932159 0.000000 0.000000
v -0.033000 -0.012163 0.057222
vn -2.932159 0.000000 0.000000
v -0.033000 -0.012163 -0.057222
vn -2.932149 0.000000 0.000000
v -0.033000 -0.023794 0.053442
vn -2.932149 0.000000 0.000000
v -0.033000 -0.023794 -0.053442
vn -2.932154 0.000000 0.000000
v -0.033000 -0.034385 0.047327
vn -2.932154 0.000000 0.000000
v -0.033000 -0.034385 -0.047327
vn -2.932154 0.000000 0.000000
v -0.033000 -0.043474 0.039144
vn -2.932154 0.000000 0.000000
v -0.033000 -0.043474 -0.039144
vn -2.932151 0.000000 0.000000
v -0.033000 -0.050662 0.029250
vn -2.932151 0.000000 0.000000
v -0.033000 -0.050662 -0.029250
vn -2.932152 0.000000 0.000000
v -0.033000 -0.055637 0.018078
vn -2.932152 0.000000 0.000000
v -0.033000 -0.055637 -0.018078
vn -2.932155 0.000000 0.000000
v -0.033000 -0.058180 0.006115
vn -2.932155 0.000000 0.000000
v -0.033000 -0.058180 -0.006115
vn 0.000000 0.928467 1.031168
v 0.033000 0.043474 0.039144
vn 0.000000 0.122600 0.136161
v 0.033000 0.043474 0.039144
vn 0.000000 1.051067 1.167330
v -0.033000 0.043474 0.039144
vn 0.000000 1.051067 -1.167330
v 0.033000 0.043474 -0.039144
vn 0.000000 0.122600 -0.136161
v -0.033000 0.043474 -0.039144
vn 0.000000 0.928467 -1.031168
v -0.033000 0.043474 -0.039144
vn 0.000000 -0.928467 -1.031168
v 0.033000 -0.043474 -0.039144
vn 0.000000 -0.122600 -0.136161
v 0.033000 -0.043474 -0.039144
vn 0.000000 -1.051067 -1.167330
v -0.033000 -0.043474 -0.039144
vn 0.000000 -1.051067 1.167330
v 0.033000 -0.043474 0.039144
vn 0.000000 -0.122600 0.136161
v -0.033000 -0.043474 0.039144
vn 0.000000 -0.928467 1.031168
v -0.033000 -0.043474 0.039144
# 134 vertices, 0 vertices normals

f 46//46 13//13 43//43
f 13//13 11//11 43//43
f 43//43 11//11 41//41
f 11//11 9//9 41//41
f 41//41 9//9 39//39
f 9//9 123//123 39//39
f 39//39 124//124 125//125
f 7//7 5//5 37//37
f 37//37 5//5 35//35
f 5//5 3//3 35//35
f 35//35 3//3 33//33
f 3//3 1//1 33//33
f 33//33 1//1 31//31
f 1//1 2//2 31//31
f 31//31 2//2 32//32
f 2//2 4//4 32//32
f 32//32 4//4 34//34
f 4//4 6//6 34//34
f 34//34 6//6 36//36
f 6//6 8//8 36//36
f 36//36 8//8 38//38
f 126//126 10//10 127//127
f 128//128 10//10 40//40
f 10//10 12//12 40//40
f 40//40 12//12 42//42
f 12//12 14//14 42//42
f 42//42 14//14 44//44
f 14//14 15//15 44//44
f 44//44 15//15 45//45
f 15//15 18//18 45//45
f 45//45 18//18 48//48
f 18//18 20//20 48//48
f 48//48 20//20 50//50
f 20//20 22//22 50//50
f 50//50 22//22 52//52
f 22//22 129//129 52//52
f 52//52 130//130 131//131
f 24//24 26//26 54//54
f 54//54 26//26 56//56
f 26//26 28//28 56//56
f 56//56 28//28 58//58
f 28//28 30//30 58//58
f 58//58 30//30 60//60
f 30//30 29//29 60//60
f 60//60 29//29 59//59
f 29//29 27//27 59//59
f 59//59 27//27 57//57
f 27//27 25//25 57//57
f 57//57 25//25 55//55
f 25//25 23//23 55//55
f 55//55 23//23 53//53
f 132//132 21//21 133//133
f 134//134 21//21 51//51
f 21//21 19//19 51//51
f 51//51 19//19 49//49
f 19//19 17//17 49//49
f 49//49 17//17 47//47
f 17//17 16//16 47//47
f 47//47 16//16 46//46
f 16//16 13//13 46//46
f 81//81 79//79 77//77
f 79//79 75//75 77//77
f 77//77 75//75 74//74
f 87//87 85//85 77//77
f 85//85 83//83 77//77
f 77//77 83//83 81//81
f 90//90 91//91 77//77
f 91//91 89//89 77//77
f 77//77 89//89 87//87
f 84//84 86//86 77//77
f 86//86 88//88 77//77
f 77//77 88//88 90//90
f 78//78 80//80 77//77
f 80//80 82//82 77//77
f 77//77 82//82 84//84
f 71//71 73//73 77//77
f 73//73 76//76 77//77
f 77//77 76//76 78//78
f 65//65 67//67 77//77
f 67//67 69//69 77//77
f 77//77 69//69 71//71
f 62//62 61//61 77//77
f 61//61 63//63 77//77
f 77//77 63//63 65//65
f 68//68 66//66 77//77
f 66//66 64//64 77//77
f 77//77 64//64 62//62
f 74//74 72//72 77//77
f 72//72 70//70 77//77
f 77//77 70//70 68//68
f 103//103 105//105 108//108
f 105//105 106//106 108//108
f 108//108 106//106 110//110
f 97//97 99//99 108//108
f 99//99 101//101 108//108
f 108//108 101//101 103//103
f 92//92 93//93 108//108
f 93//93 95//95 108//108
f 108//108 95//95 97//97
f 98//98 96//96 108//108
f 96//96 94//94 108//108
f 108//108 94//94 92//92
f 104//104 102//102 108//108
f 102//102 100//100 108//108
f 108//108 100//100 98//98
f 111//111 109//109 108//108
f 109//109 107//107 108//108
f 108//108 107//107 104//104
f 117//117 115//115 108//108
f 115//115 113//113 108//108
f 108//108 113//113 111//111
f 122//122 121//121 108//108
f 121//121 119//119 108//108
f 108//108 119//119 117//117
f 116//116 118//118 108//108
f 118//118 120//120 108//108
f 108//108 120//120 122//122
f 110//110 112//112 108//108
f 112//112 114//114 108//108
f 108//108 114//114 116//116
# 120 faces, 0 coords texture

# End of File