####
#
# OBJ File Generated by Meshlab
#
####
# Object palm_right.obj
#
# Vertices: 61
# Faces: 118
#
####
vn -0.136584 6.226251 -0.544445
v -0.029584 -0.011521 0.012399
vn -3.241226 2.870544 0.217027
v -0.038417 -0.012346 0.010976
vn -3.021809 2.868305 1.386720
v -0.036811 -0.012265 0.018032
vn 2.051157 -2.982955 -0.111957
v 0.017171 -0.079503 0.010702
vn 4.765067 0.738689 1.942091
v 0.019312 -0.042626 0.007484
vn 2.006241 1.582384 2.356379
v 0.016129 -0.053812 0.034741
vn -3.393503 -0.597881 4.927655
v -0.024882 -0.091338 0.028964
vn -3.617811 -1.064436 2.760921
v -0.032357 -0.091410 0.027012
vn -2.370079 -3.005571 1.368668
v -0.025787 -0.107202 0.025687
vn -1.194676 4.785818 -1.478175
v -0.029501 -0.012699 -0.019812
vn -5.861711 0.315241 -1.479902
v -0.025717 -0.047124 -0.049388
vn -5.272903 0.828921 -2.966040
v -0.031193 -0.056517 -0.044634
vn 3.839298 2.662569 -0.923929
v 0.018898 -0.019882 -0.021251
vn 2.882676 2.967811 -0.689226
v 0.018676 -0.014946 -0.012361
vn 3.314168 -3.150307 -0.950561
v 0.017004 -0.072395 -0.009500
vn 0.495643 6.123135 0.423730
v -0.029584 -0.014357 -0.012403
vn 1.794677 4.801558 1.231590
v -0.016035 -0.012482 0.012399
vn -6.132102 -0.632781 0.418163
v -0.038417 -0.063512 0.004692
vn -3.202145 -0.461695 3.766173
v -0.033448 -0.054036 0.028965
vn -4.006575 -0.327746 -4.527632
v -0.024994 -0.088179 -0.055800
vn -3.141214 0.264852 -4.386012
v -0.022877 -0.086926 -0.059689
vn -2.183462 -1.840831 -3.791767
v -0.019382 -0.098024 -0.061171
vn -1.209967 5.290692 0.669204
v -0.028218 -0.010721 0.021119
vn -2.269126 0.702446 3.429140
v -0.032984 -0.028322 0.033720
vn -2.108865 0.765628 -2.873614
v -0.025717 -0.045039 -0.055372
vn -2.506001 2.148025 -1.752055
v -0.028565 -0.019472 -0.038748
vn 1.931329 1.624797 2.430976
v -0.012732 -0.044728 0.011779
vn -4.406685 -3.040602 2.454253
v -0.022370 -0.107482 0.027857
vn -2.845621 -3.090932 3.207584
v -0.019224 -0.109630 0.031382
vn -2.469833 -0.907875 4.632318
v -0.019920 -0.102450 0.033748
vn -2.938001 -2.531972 -2.470807
v -0.026095 -0.096865 -0.054176
vn 1.943526 2.096152 -1.586774
v 0.017710 -0.020710 -0.040690
vn 1.883212 -0.115953 -2.244418
v 0.017553 -0.058950 -0.058607
vn -0.295283 2.019420 -5.819161
v -0.000840 -0.056031 -0.052538
vn -3.410820 -0.126635 -2.899775
v -0.031502 -0.083974 -0.053299
vn -6.094385 -0.438052 -0.715991
v -0.038352 -0.060418 -0.020500
vn -3.900666 0.005242 2.934908
v -0.027341 -0.028322 0.033720
vn -2.679730 -0.250294 3.121910
v -0.027341 -0.027337 0.039354
vn -0.945893 1.346413 0.374776
v -0.030612 -0.006734 0.032180
vn -4.467836 -3.315242 -2.383888
v -0.022272 -0.098378 -0.055122
vn 1.995914 1.978260 1.980831
v -0.017565 -0.012701 0.036147
vn 1.056174 1.276631 5.267297
v -0.014605 -0.053633 0.035563
vn 1.646303 -1.735761 4.199116
v -0.007488 -0.077632 0.035568
vn 1.283595 -1.912309 1.805135
v -0.012839 -0.111930 0.032359
vn 2.196017 -3.542470 -0.069739
v -0.005344 -0.072462 0.019682
vn 1.477488 -3.204968 0.278564
v -0.013186 -0.114245 0.024888
vn 2.884093 -3.892418 -0.454591
v -0.003577 -0.072395 -0.009500
vn 4.134983 -3.151103 -0.161610
v 0.016088 -0.067969 -0.029348
vn 1.405595 -3.269133 -1.000727
v -0.013186 -0.104442 -0.054925
vn -3.672774 -4.198711 -1.559636
v -0.020689 -0.100730 -0.055276
vn 2.610490 0.067680 3.317741
v -0.016637 -0.029244 0.039460
vn 1.420535 -1.464197 1.458062
v 0.017097 -0.076912 0.035314
vn 1.815948 -0.495032 -3.508601
v -0.008264 -0.084020 -0.061806
vn 1.462585 1.383848 1.722142
v 0.017399 -0.014689 0.014830
vn 2.980911 -4.046017 0.009299
v -0.003038 -0.071040 -0.020844
vn -2.964500 -0.451692 3.637741
v -0.025717 -0.054036 0.028965
vn -3.642482 -0.851831 4.030569
v -0.024896 -0.044175 0.035026
vn 0.372127 4.281461 -3.687779
v -0.013812 -0.020763 -0.040783
vn -3.731937 -4.340729 0.328536
v -0.020302 -0.111023 0.024951
vn -2.331375 2.615884 -0.874705
v -0.038352 -0.012640 -0.014632
vn 1.874369 -1.690076 -2.330095
v -0.011741 -0.099790 -0.061299
# 61 vertices, 0 vertices normals

f 1//1 2//2 3//3
f 4//4 5//5 6//6
f 7//7 8//8 9//9
f 10//10 11//11 12//12
f 13//13 14//14 15//15
f 14//14 16//16 17//17
f 15//15 14//14 5//5
f 2//2 18//18 19//19
f 20//20 21//21 22//22
f 23//23 3//3 24//24
f 11//11 25//25 21//21
f 11//11 10//10 26//26
f 6//6 5//5 27//27
f 28//28 29//29 30//30
f 31//31 9//9 8//8
f 32//32 33//33 34//34
f 12//12 35//35 36//36
f 37//37 38//38 39//39
f 31//31 35//35 20//20
f 20//20 35//35 12//12
f 40//40 28//28 9//9
f 41//41 39//39 38//38
f 6//6 42//42 43//43
f 30//30 29//29 44//44
f 45//45 46//46 47//47
f 10//10 16//16 14//14
f 48//48 33//33 32//32
f 49//49 50//50 22//22
f 27//27 17//17 51//51
f 40//40 22//22 50//50
f 52//52 43//43 45//45
f 33//33 53//53 34//34
f 22//22 21//21 53//53
f 23//23 39//39 41//41
f 54//54 17//17 27//27
f 4//4 45//45 47//47
f 15//15 47//47 55//55
f 53//53 33//33 48//48
f 37//37 24//24 19//19
f 37//37 56//56 57//57
f 51//51 38//38 57//57
f 42//42 57//57 30//30
f 56//56 19//19 8//8
f 7//7 30//30 57//57
f 21//21 25//25 34//34
f 58//58 34//34 25//25
f 10//10 13//13 58//58
f 40//40 50//50 59//59
f 49//49 46//46 59//59
f 29//29 28//28 59//59
f 46//46 44//44 29//29
f 17//17 41//41 51//51
f 36//36 35//35 8//8
f 10//10 60//60 16//16
f 16//16 60//60 2//2
f 60//60 12//12 36//36
f 60//60 36//36 18//18
f 23//23 1//1 3//3
f 52//52 4//4 6//6
f 28//28 7//7 9//9
f 60//60 10//10 12//12
f 48//48 13//13 15//15
f 17//17 54//54 14//14
f 16//16 1//1 17//17
f 5//5 4//4 15//15
f 14//14 54//54 5//5
f 24//24 3//3 2//2
f 18//18 8//8 19//19
f 19//19 24//24 2//2
f 40//40 20//20 22//22
f 37//37 23//23 24//24
f 20//20 11//11 21//21
f 25//25 11//11 26//26
f 42//42 6//6 27//27
f 7//7 28//28 30//30
f 35//35 31//31 8//8
f 58//58 32//32 34//34
f 23//23 37//37 39//39
f 40//40 31//31 20//20
f 11//11 20//20 12//12
f 31//31 40//40 9//9
f 51//51 41//41 38//38
f 52//52 6//6 43//43
f 43//43 30//30 44//44
f 44//44 46//46 43//43
f 49//49 55//55 47//47
f 49//49 61//61 53//53
f 47//47 46//46 49//49
f 46//46 45//45 43//43
f 49//49 53//53 55//55
f 13//13 10//10 14//14
f 13//13 48//48 32//32
f 61//61 49//49 22//22
f 42//42 27//27 51//51
f 4//4 52//52 45//45
f 61//61 22//22 53//53
f 17//17 1//1 23//23
f 23//23 41//41 17//17
f 5//5 54//54 27//27
f 15//15 4//4 47//47
f 48//48 15//15 55//55
f 55//55 53//53 48//48
f 56//56 37//37 19//19
f 38//38 37//37 57//57
f 42//42 51//51 57//57
f 43//43 42//42 30//30
f 7//7 56//56 8//8
f 56//56 7//7 57//57
f 53//53 21//21 34//34
f 26//26 58//58 25//25
f 58//58 26//26 10//10
f 13//13 32//32 58//58
f 28//28 40//40 59//59
f 50//50 49//49 59//59
f 59//59 46//46 29//29
f 18//18 36//36 8//8
f 1//1 16//16 2//2
f 2//2 60//60 18//18
# 118 faces, 0 coords texture

# End of File